<svg width="500" height="500" viewBox="0 0 500 500" fill="none" xmlns="http://www.w3.org/2000/svg">
<path d="M244.72 427.231C239.178 417.445 234.675 407.478 231.209 397.528C225.788 406.529 219.361 415.31 211.927 423.707C179.709 460.055 137.729 478.531 103.906 474.715L101.169 422.083L49.4029 424.821C42.1142 390.992 55.8207 346.612 87.9958 310.227C95.4389 301.866 103.365 294.453 111.607 288.027C101.492 285.544 91.2658 282.04 81.1435 277.457C37.1635 257.54 6.87389 222.634 0 188.714L48.3865 169.855L29.7904 120.637C59.1876 103.147 104.951 102.673 148.938 122.608C159.053 127.191 168.473 132.576 177.022 138.564C176.223 128.03 176.315 117.059 177.486 105.849C182.501 57.1783 205.789 17.1243 235.37 1.35535e-05L268.006 40.9485L308.276 7.81327C333.719 30.8343 348.336 74.9416 343.29 123.613C342.141 134.822 340.004 145.574 337.059 155.707C346.648 151.672 356.956 148.368 367.802 146.031C414.902 135.881 459.561 146.031 484.737 169.362L456.526 213.542L500 242.278C486.335 273.97 449.577 301.683 402.512 311.852C391.648 314.207 380.946 315.485 370.549 315.741C377.301 323.773 383.55 332.737 389.116 342.504C413.179 384.877 417.524 431.211 403.482 462.758L353.4 449.102L340.004 500C306.095 496.604 268.8 469.622 244.72 427.231" fill="url(#paint0_radial_2_279)"/>
<path d="M181.535 168.151C231.907 133.553 300.28 147.129 334.223 198.422C368.155 249.688 354.837 319.289 304.455 353.86C254.102 388.432 185.739 374.883 151.786 323.59C117.843 272.297 131.161 202.723 181.535 168.151Z" fill="#F9ADCE"/>
<path d="M291.8 231.141C302.786 226.194 314.969 219.84 326.753 211.917C326.16 210.438 326.501 208.668 327.74 207.554C329.32 206.167 331.691 206.349 333.037 207.937C334.384 209.507 334.223 211.935 332.678 213.305C331.206 214.619 328.997 214.528 327.633 213.177C321.947 217.284 309.16 226.23 293.786 234.92C295 237.348 334.438 232.456 371.878 213.451C371.447 211.917 372.004 210.201 373.387 209.252C375.11 208.083 377.445 208.54 378.612 210.293C379.761 212.045 379.312 214.4 377.57 215.568C375.972 216.682 373.799 216.335 372.596 214.82C361.858 220.753 327.525 238.736 297.341 244.559C298.323 248.247 298.905 251.971 299.103 255.695C311.989 258.27 327.453 260.424 343.56 260.57C343.866 258.982 345.122 257.722 346.775 257.521C348.84 257.265 350.725 258.744 350.958 260.826C351.228 262.925 349.773 264.824 347.708 265.098C345.769 265.317 343.991 264.02 343.596 262.122C336.054 262.304 318.44 262.432 299.151 260.479C298.835 269.607 296.276 278.571 291.638 286.494C303.85 294.326 327.615 308.109 355.16 316.397C355.879 314.992 357.441 314.134 359.075 314.389C361.122 314.718 362.523 316.689 362.182 318.752C361.876 320.834 359.973 322.258 357.89 321.929C355.968 321.619 354.622 319.848 354.747 317.894C344.117 315.083 312.836 306.156 287.752 292.226L283.692 296.863C289.857 310.738 301.642 334.179 318.918 355.466C320.286 354.699 322.06 354.881 323.267 356.013C324.788 357.474 324.865 359.884 323.449 361.417C322.032 362.951 319.647 363.042 318.16 361.6C316.722 360.249 316.575 358.021 317.74 356.469C310.879 348.565 291.78 325.708 278.585 301.464L275.619 303.654C272.307 305.918 268.849 307.762 265.272 309.186C265.306 318.606 265.832 328.702 267.166 338.962C268.73 339.053 270.133 340.149 270.56 341.774C271.094 343.818 269.923 345.899 267.917 346.447C265.917 346.995 263.87 345.79 263.329 343.745C262.824 341.828 263.834 339.875 265.651 339.181C264.767 333.777 263.189 323.171 262.067 310.337C255.613 312.454 248.915 313.239 242.334 312.801C237.852 323.682 226.566 353.75 223.396 387.469C224.91 387.925 226.04 389.313 226.09 390.992C226.167 393.11 224.531 394.862 222.47 394.935C220.401 395.008 218.683 393.365 218.598 391.266C218.536 389.276 219.96 387.597 221.852 387.341C222.588 375.675 225.436 340.222 235.068 311.833C231.195 311.012 227.401 309.77 223.795 308.109C218.087 316.817 212.348 326.694 207.368 337.3C208.638 338.25 209.227 339.93 208.722 341.554C208.068 343.544 205.966 344.64 203.987 343.983C202.015 343.344 200.95 341.207 201.581 339.181C202.198 337.301 204.105 336.224 205.966 336.662C208.385 331.039 213.513 319.537 220.541 306.484C217.245 304.695 214.124 302.559 211.198 300.04C199.315 309.35 183.988 322.86 170.564 339.437C171.559 340.678 171.735 342.467 170.844 343.891C169.756 345.68 167.421 346.228 165.667 345.114C163.927 344.001 163.395 341.646 164.475 339.838C165.52 338.177 167.631 337.593 169.35 338.487C174.856 331.203 189.551 312.491 207.052 296.042C205.025 293.869 203.159 291.532 201.477 288.976C200.002 286.749 198.711 284.449 197.583 282.076C193.466 284.212 189.284 286.494 185.154 288.958C185.687 290.473 185.238 292.208 183.94 293.249C182.313 294.545 179.941 294.234 178.659 292.591C177.387 290.93 177.696 288.538 179.332 287.242C180.853 286.019 183.035 286.22 184.36 287.644L196.671 280.031C195.711 277.767 194.917 275.43 194.287 273.094C179.801 273.787 152.655 276.398 125.544 285.618C125.756 287.206 124.977 288.812 123.475 289.542C121.617 290.474 119.372 289.67 118.46 287.808C117.555 285.91 118.327 283.627 120.179 282.696C121.933 281.82 124.037 282.496 125.032 284.157C135.155 280.305 164.909 269.716 192.882 266.284C192.301 262.067 192.216 257.85 192.602 253.633C183.94 252.647 174.667 252.026 165.177 252.099C164.895 253.687 163.668 254.965 161.998 255.221C159.957 255.495 158.078 254.034 157.777 251.953C157.488 249.872 158.899 247.937 160.975 247.663C162.896 247.389 164.706 248.649 165.141 250.548C170.424 250.328 180.665 250.055 192.988 250.438C194.371 241.219 198.095 232.364 203.946 224.879C190.695 217.12 169.449 206.167 145.431 199.394C144.722 200.818 143.18 201.712 141.546 201.475C139.475 201.183 138.044 199.266 138.346 197.166C138.627 195.104 140.52 193.625 142.591 193.953C144.512 194.209 145.887 195.943 145.803 197.878C155.834 200.343 184.051 207.865 208.406 219.895C210.286 218.033 212.328 216.28 214.501 214.674C208.812 200.27 198.6 177.924 183.505 157.203C182.081 157.897 180.327 157.623 179.171 156.419C177.732 154.903 177.781 152.494 179.267 151.033C180.754 149.554 183.119 149.609 184.565 151.106C185.904 152.53 185.96 154.775 184.712 156.254C190.975 164.287 208.068 187.034 219.96 211.169C224.504 208.613 229.274 206.806 234.135 205.71C232.479 195.067 230.003 183.456 226.392 171.827C224.833 172.027 223.255 171.188 222.554 169.654C221.691 167.756 222.491 165.492 224.377 164.616C226.25 163.703 228.482 164.543 229.358 166.441C230.186 168.249 229.498 170.366 227.85 171.352C229.933 177.322 234.093 189.937 237.789 204.998C243.492 204.14 249.265 204.213 254.877 205.199C257.1 197.02 265.728 162.936 264.114 125.913C262.55 125.675 261.239 124.452 260.944 122.79C260.607 120.727 261.954 118.738 264.002 118.391C266.037 118.026 267.98 119.395 268.344 121.476C268.687 123.429 267.473 125.292 265.644 125.821C266.57 138.089 268.757 176.683 261.975 206.97C266.03 208.266 269.923 210.073 273.584 212.337C279.427 200.635 285.452 186.505 289.893 171.224C288.503 170.494 287.669 168.906 287.906 167.244C288.244 165.181 290.166 163.757 292.214 164.086C294.256 164.396 295.644 166.368 295.328 168.431C295.012 170.384 293.286 171.753 291.387 171.644C289.471 179.092 284.708 196.528 277.448 214.966C279.357 216.409 281.173 217.96 282.891 219.658C293.491 208.412 308.866 190.284 320.967 168.504C319.739 167.482 319.304 165.729 319.915 164.177C320.685 162.224 322.86 161.274 324.783 162.078C326.699 162.863 327.632 165.09 326.86 167.044C326.124 168.869 324.136 169.819 322.299 169.253C317.634 178.381 304.089 203.556 287.199 224.423L290.054 228.348L291.8 231.141Z" fill="#FCDBE8"/>
<path d="M232.22 245.125C240.994 239.101 252.905 241.456 258.818 250.383C264.738 259.293 262.409 271.415 253.641 277.403C244.86 283.409 232.963 281.072 227.029 272.145C221.116 263.217 223.452 251.132 232.22 245.125Z" fill="#FEF7F7"/>
<defs>
<radialGradient id="paint0_radial_2_279" cx="0" cy="0" r="1" gradientUnits="userSpaceOnUse" gradientTransform="translate(235.048 253.158) rotate(22.3393) scale(277.372 280.641)">
<stop stop-color="#AB2467"/>
<stop offset="1" stop-color="#F8A1CA"/>
</radialGradient>
</defs>
</svg>
